<svg width="124" height="124" viewBox="0 0 124 124" fill="none" xmlns="http://www.w3.org/2000/svg">
<path d="M62 10.3334C39.215 10.3334 20.6667 28.8817 20.6667 51.6667C20.5117 84.94 57.4534 111.6 59.0033 112.737C59.8817 113.357 60.9667 113.718 62 113.718C63.0334 113.718 64.1184 113.408 64.9967 112.737C66.5467 111.6 103.488 84.9917 103.333 51.6667C103.333 28.8817 84.785 10.3334 62 10.3334ZM62 72.3334C50.5817 72.3334 41.3333 63.085 41.3333 51.6667C41.3333 40.2484 50.5817 31 62 31C73.4184 31 82.6667 40.2484 82.6667 51.6667C82.6667 63.085 73.4184 72.3334 62 72.3334Z" fill="#F07B17"/>
</svg>
