<svg width="417" height="283" viewBox="0 0 417 283" fill="none" xmlns="http://www.w3.org/2000/svg">
<g clip-path="url(#clip0_1079_622)">
<path fill-rule="evenodd" clip-rule="evenodd" d="M13.6518 144.584C13.435 144.431 13.7241 143.546 14.5687 142.093C15.4132 140.64 16.8243 138.62 18.9324 136.347C21.0404 134.074 23.8549 131.551 27.4288 129.213C31.0028 126.875 35.3413 124.727 40.3125 123.276C45.5731 121.755 51.4512 121.032 57.5397 121.308C63.8527 121.594 69.8419 122.913 75.1009 124.774C79.8443 126.445 84.0333 128.54 87.5711 130.719C91.1088 132.898 93.9976 135.157 96.2409 137.18C98.4842 139.204 100.087 140.989 101.091 142.289C102.095 143.589 102.506 144.402 102.316 144.584C102.127 144.766 101.351 144.307 100.043 143.373C98.7345 142.439 96.8871 141.033 94.4916 139.397C92.0959 137.76 89.1473 135.896 85.6581 134.086C82.1693 132.275 78.1382 130.521 73.6526 129.116C68.6818 127.569 63.1208 126.446 57.3138 126.171C51.7138 125.906 46.3529 126.466 41.5288 127.71C36.9728 128.871 32.9052 130.626 29.4501 132.547C25.9953 134.467 23.1503 136.549 20.8909 138.413C18.6317 140.276 16.9501 141.92 15.7618 143.036C14.5739 144.151 13.8683 144.737 13.6515 144.584L13.6518 144.584Z" fill="#351904"/>
<path fill-rule="evenodd" clip-rule="evenodd" d="M3.69177 98.4929C3.90442 98.2328 5.35466 98.974 7.72178 100.666C10.0889 102.359 13.3671 105.015 17.0881 108.664C20.809 112.312 24.9665 116.961 29.0303 122.551C33.0942 128.141 37.0568 134.673 40.4266 141.911C41.099 143.355 41.7355 144.8 42.336 146.241C44.5177 151.454 46.2191 156.611 47.5001 161.516C48.7811 166.421 49.6429 171.072 50.1919 175.292C50.7408 179.512 50.9788 183.301 51.0337 186.51C51.0887 189.719 50.9632 192.348 50.7747 194.272C51.1399 196.464 51.2108 197.755 50.9224 197.838C50.634 197.92 50.0092 196.777 49.1022 194.517C48.6293 190.826 48.0252 184.367 46.4177 176.226C45.614 172.155 44.5565 167.668 43.1546 162.927C41.7527 158.186 40.0054 153.192 37.8614 148.122C37.2746 146.74 36.6579 145.353 36.0113 143.964C32.7712 137.003 29.0783 130.657 25.3539 125.122C21.6294 119.588 17.8788 114.864 14.5752 111.016C11.2717 107.168 8.42042 104.189 6.4708 102.088C4.52117 99.9876 3.47928 98.7523 3.69192 98.4922L3.69177 98.4929Z" fill="#351904" stroke="white"/>
<path fill-rule="evenodd" clip-rule="evenodd" d="M4.42724 99.228C4.58588 99.2709 4.65175 99.6336 4.64677 100.282C4.6418 100.931 4.5666 101.866 4.46285 103.06C4.25535 105.447 3.93167 108.874 3.93051 113.1C3.92953 117.325 4.26166 122.355 5.33464 127.808C6.40764 133.262 8.22704 139.134 11.0433 144.885C11.2954 145.401 11.5555 145.915 11.8236 146.429C14.8785 152.282 18.6777 157.384 22.6037 161.598C26.5298 165.811 30.5751 169.137 34.1549 171.683C37.7348 174.229 40.8478 176.008 43.0108 177.258C44.0921 177.883 44.9375 178.376 45.4965 178.757C46.0555 179.138 46.3281 179.408 46.271 179.566C46.2139 179.724 45.8296 179.763 45.1487 179.674C44.4679 179.585 43.4906 179.369 42.2602 178.997C39.7995 178.252 36.3139 176.881 32.3027 174.584C28.2915 172.287 23.7595 169.048 19.3849 164.726C17.1976 162.565 15.0524 160.138 13.0421 157.456C11.0317 154.774 9.15666 151.838 7.50739 148.682C7.21799 148.128 6.93793 147.572 6.66723 147.015C3.65493 140.798 1.84756 134.43 0.961051 128.565C0.0747816 122.7 0.0990319 117.342 0.550139 112.923C1.00124 108.504 1.86459 105.017 2.64605 102.68C3.03676 101.511 3.40816 100.627 3.71627 100.046C4.02438 99.4642 4.26861 99.1851 4.42724 99.228Z" fill="#351904" stroke="white"/>
<path fill-rule="evenodd" clip-rule="evenodd" d="M111.688 98.493C111.901 98.7531 110.859 99.9883 108.909 102.089C106.96 104.19 104.108 107.169 100.805 111.017C97.5016 114.865 93.7507 119.589 90.0263 125.123C86.3018 130.658 82.6087 137.004 79.3689 143.965C78.7224 145.354 78.1057 146.741 77.5188 148.122C75.3747 153.192 73.6274 158.186 72.2256 162.927C70.8237 167.668 69.7662 172.156 68.9625 176.227C67.355 184.368 66.7509 190.827 66.2781 194.518C65.3711 196.778 64.7462 197.921 64.4579 197.838C64.1695 197.756 64.2403 196.465 64.6056 194.273C64.417 192.348 64.2915 189.719 64.3465 186.511C64.4015 183.302 64.6394 179.513 65.1883 175.293C65.7373 171.073 66.5991 166.422 67.8801 161.517C69.1611 156.612 70.8625 151.454 73.0442 146.242C73.6447 144.801 74.2812 143.356 74.9536 141.912C78.3232 134.674 82.286 128.141 86.3499 122.552C90.4138 116.962 94.5711 112.313 98.2921 108.664C102.013 105.016 105.291 102.359 107.658 100.667C110.026 98.9747 111.476 98.2335 111.688 98.4937L111.688 98.493Z" fill="#351904" stroke="white"/>
<path opacity="0.44108" d="M66.1744 197.823C66.1744 198.366 62.9805 198.807 59.0407 198.807C55.1008 198.807 51.907 198.366 51.907 197.823C51.907 197.28 55.1009 196.839 59.0407 196.839C62.9806 196.839 66.1744 197.28 66.1744 197.823Z" fill="#351904"/>
<path d="M66.2523 195.944C66.2523 198.796 64.3751 202.678 57.8538 202.678C51.3328 202.678 49.4552 198.796 49.4552 195.944C49.4552 193.092 51.3324 191.754 57.8538 191.754C64.3747 191.754 66.2523 193.092 66.2523 195.944Z" fill="#351904"/>
<path fill-rule="evenodd" clip-rule="evenodd" d="M111.888 98.8678C112.047 98.8249 112.291 99.1041 112.599 99.6856C112.907 100.267 113.279 101.151 113.669 102.32C114.451 104.657 115.314 108.144 115.765 112.563C116.216 116.982 116.241 122.34 115.354 128.205C114.468 134.07 112.661 140.438 109.648 146.655C109.377 147.212 109.097 147.768 108.808 148.322C107.159 151.478 105.284 154.414 103.273 157.096C101.263 159.778 99.1175 162.205 96.9305 164.366C92.556 168.688 88.0239 171.928 84.0127 174.224C80.0015 176.521 76.5156 177.892 74.0551 178.637C72.8247 179.009 71.8474 179.225 71.1666 179.314C70.4858 179.402 70.1014 179.364 70.0443 179.206C69.9872 179.048 70.2598 178.778 70.8188 178.397C71.3778 178.016 72.2232 177.523 73.3046 176.898C75.4672 175.648 78.5802 173.868 82.16 171.323C85.7399 168.777 89.7851 165.451 93.7111 161.238C97.6372 157.025 101.437 151.922 104.491 146.069C104.759 145.555 105.019 145.041 105.272 144.525C108.088 138.774 109.907 132.902 110.98 127.448C112.053 121.995 112.386 116.965 112.384 112.74C112.383 108.514 112.059 105.087 111.852 102.7C111.748 101.506 111.673 100.571 111.668 99.9223C111.663 99.2735 111.729 98.9107 111.888 98.8678Z" fill="#351904" stroke="white"/>
<path d="M72.9295 158.664C72.9785 158.494 73.666 158.105 74.887 157.556C75.5357 157.264 76.5636 156.777 77.1711 156.474C78.1637 155.978 79.5901 155.288 81.68 154.293C82.7673 153.775 85.2427 152.656 86.5061 152.11C87.3399 151.75 87.8744 151.583 88.606 151.457C90.7626 151.085 95.5122 150.727 99.1285 150.664C101.828 150.617 102.189 150.784 100.081 151.105C98.6495 151.323 97.8195 151.521 96.6819 151.915C95.0226 152.491 93.6574 153.136 92.5893 153.849C92.1607 154.136 91.6443 154.669 91.0055 155.485C90.0712 156.678 88.2835 157.525 86.3594 157.685C85.4297 157.762 83.4227 157.682 82.7365 157.539C82.4449 157.479 81.9445 157.307 81.624 157.16C81.1537 156.942 80.9375 156.879 80.5003 156.832C80.2023 156.801 79.7648 156.749 79.5281 156.717C78.9443 156.637 78.695 156.677 77.2613 157.077C76.0127 157.426 75.1357 157.783 73.8582 158.463C73.1993 158.814 72.8657 158.886 72.9298 158.663L72.9295 158.664Z" fill="#351904"/>
<path d="M42.8743 158.913C42.8254 158.742 42.1378 158.353 40.9169 157.804C40.2681 157.513 39.2403 157.026 38.6328 156.722C37.6401 156.226 36.2138 155.536 34.1238 154.541C33.0365 154.024 30.5611 152.904 29.2978 152.358C28.4639 151.998 27.9295 151.832 27.1979 151.705C25.0413 151.333 20.2916 150.975 16.6753 150.912C13.9759 150.865 13.6146 151.032 15.7227 151.353C17.1543 151.571 17.9843 151.769 19.1219 152.163C20.7812 152.739 22.1465 153.384 23.2146 154.098C23.6431 154.384 24.1595 154.917 24.7983 155.733C25.7327 156.926 27.5203 157.773 29.4445 157.934C30.3741 158.01 32.3811 157.93 33.0674 157.788C33.359 157.727 33.8593 157.555 34.1798 157.408C34.6501 157.19 34.8663 157.127 35.3035 157.08C35.6015 157.049 36.039 156.997 36.2757 156.965C36.8596 156.885 37.1088 156.925 38.5425 157.326C39.7911 157.674 40.6681 158.032 41.9456 158.712C42.6045 159.063 42.9381 159.134 42.874 158.911L42.8743 158.913Z" fill="#351904"/>
<path fill-rule="evenodd" clip-rule="evenodd" d="M263.543 278.326C263.479 278.156 263.912 277.811 264.767 277.283C265.621 276.754 266.898 276.04 268.498 275.085C270.099 274.13 272.025 272.933 274.152 271.421C276.279 269.909 278.609 268.082 280.986 265.878C282.596 264.382 284.228 262.716 285.793 260.86C287.358 259.004 288.855 256.957 290.167 254.699C292.424 250.812 294.182 246.273 294.658 241.411C295.058 237.731 294.675 233.838 293.923 229.784C293.489 227.444 292.949 225.112 292.412 222.807C291.597 219.445 290.779 216.071 290.222 212.723C289.665 209.374 289.371 206.053 289.497 202.808C289.663 199.062 290.422 195.552 291.542 192.422C292.663 189.293 294.146 186.542 295.773 184.217C297.525 181.716 299.432 179.714 301.246 178.143C303.06 176.572 304.781 175.43 306.242 174.612C307.702 173.795 308.903 173.299 309.743 173.032C310.582 172.765 311.062 172.724 311.135 172.875C311.207 173.025 310.871 173.361 310.201 173.895C309.532 174.429 308.528 175.166 307.305 176.174C306.081 177.182 304.636 178.464 303.132 180.096C301.627 181.728 300.061 183.711 298.657 186.083C297.351 188.287 296.185 190.834 295.335 193.674C294.485 196.513 293.951 199.645 293.922 202.931C293.878 205.787 294.237 208.774 294.84 211.895C295.444 215.017 296.29 218.274 297.116 221.665C297.703 223.986 298.278 226.403 298.731 228.903C299.515 233.234 299.877 237.617 299.41 241.927C298.74 247.623 296.622 252.746 293.929 256.988C292.368 259.448 290.63 261.627 288.835 263.557C287.04 265.487 285.189 267.168 283.374 268.635C280.699 270.802 278.089 272.522 275.711 273.873C273.332 275.224 271.185 276.208 269.392 276.912C267.599 277.616 266.161 278.043 265.163 278.263C264.164 278.482 263.607 278.496 263.543 278.326Z" fill="#351904"/>
<path fill-rule="evenodd" clip-rule="evenodd" d="M69.4229 183.387C69.5087 183.27 69.9322 183.397 70.6564 183.774C71.3806 184.151 72.4054 184.78 73.6633 185.695C74.9211 186.61 76.412 187.813 78.0378 189.35C79.6635 190.886 81.424 192.757 83.1892 195.002C84.6082 196.811 86.015 198.843 87.4229 201.046C88.8309 203.25 90.2393 205.626 91.7269 208.073C92.9588 210.088 94.2495 212.163 95.671 214.205C97.0925 216.247 98.6447 218.257 100.43 220.112C102.214 221.989 104.255 223.729 106.503 225.34C108.751 226.95 111.205 228.43 113.791 229.802C117.49 231.757 121.477 233.482 125.628 235.172C126.954 235.712 128.28 236.242 129.601 236.77C138.969 240.51 147.858 244.1 155.95 247.397C158.507 248.429 161.037 249.473 163.429 250.644C165.821 251.814 168.074 253.11 170.113 254.586C172.641 256.399 174.777 258.565 176.363 260.852C177.949 263.138 178.989 265.545 179.508 267.884C180.065 270.513 179.918 272.93 179.478 274.938C179.039 276.946 178.309 278.553 177.584 279.757C176.86 280.962 176.141 281.772 175.608 282.264C175.074 282.756 174.726 282.936 174.623 282.847C174.521 282.757 174.666 282.404 174.971 281.784C175.276 281.165 175.739 280.274 176.188 279.076C176.636 277.878 177.069 276.365 177.246 274.576C177.423 272.788 177.343 270.716 176.696 268.597C176.135 266.678 175.115 264.737 173.624 262.888C172.133 261.039 170.169 259.282 167.903 257.757C166.043 256.517 163.95 255.433 161.667 254.43C159.385 253.426 156.913 252.503 154.333 251.526C146.143 248.453 137.191 244.999 127.804 241.287C126.478 240.764 125.138 240.232 123.79 239.683C119.57 237.965 115.434 236.143 111.527 234.035C108.784 232.56 106.16 230.921 103.738 229.11C101.316 227.299 99.097 225.316 97.1393 223.169C95.2063 221.027 93.578 218.793 92.1379 216.577C90.6979 214.361 89.446 212.162 88.2945 210.059C86.8908 207.511 85.6184 205.093 84.3756 202.87C83.1329 200.647 81.9203 198.619 80.7043 196.811C79.1974 194.565 77.6871 192.639 76.2961 191.006C74.905 189.373 73.6331 188.032 72.5782 186.95C71.5233 185.868 70.6854 185.043 70.1388 184.453C69.5922 183.862 69.3371 183.505 69.4229 183.387Z" fill="#351904"/>
<path fill-rule="evenodd" clip-rule="evenodd" d="M143.887 224.868C144.021 224.593 145.036 224.755 146.763 225.333C148.491 225.912 150.929 226.912 153.875 228.351C156.82 229.79 160.272 231.672 164.002 234.01C167.732 236.347 171.739 239.141 175.793 242.364C177.346 243.587 178.928 244.901 180.471 246.336C183.431 249.088 186.044 252.129 187.99 255.461C189.623 258.28 190.699 261.298 191.145 264.25C191.403 265.957 191.434 267.637 191.272 269.222C191.109 270.807 190.754 272.298 190.252 273.651C189.42 275.866 188.207 277.634 186.957 278.977C185.706 280.321 184.417 281.245 183.304 281.86C182.191 282.476 181.252 282.788 180.595 282.919C179.938 283.05 179.562 283.004 179.495 282.839C179.428 282.674 179.672 282.398 180.145 281.985C180.619 281.572 181.321 281.017 182.134 280.241C182.946 279.466 183.87 278.464 184.726 277.186C185.582 275.908 186.372 274.349 186.827 272.553C187.116 271.446 187.282 270.242 187.302 268.969C187.322 267.697 187.195 266.356 186.911 264.998C186.418 262.639 185.399 260.209 183.955 257.862C182.252 255.066 179.895 252.453 177.149 249.918C175.717 248.596 174.233 247.336 172.76 246.112C168.88 242.921 165.101 240.057 161.62 237.555C158.14 235.053 154.958 232.911 152.282 231.132C149.605 229.353 147.434 227.935 145.971 226.884C144.507 225.832 143.752 225.144 143.887 224.868Z" fill="#351904"/>
<path fill-rule="evenodd" clip-rule="evenodd" d="M246.35 277.255C246.344 277.105 246.957 276.951 248.098 276.689C249.239 276.427 250.914 276.049 252.982 275.312C255.05 274.575 257.519 273.472 260.09 271.742C261.375 270.877 262.683 269.857 263.952 268.656C265.222 267.455 266.452 266.074 267.563 264.498C268.584 263.056 269.503 261.448 270.275 259.692C271.046 257.935 271.669 256.03 272.092 254.012C272.515 251.995 272.738 249.866 272.708 247.684C272.678 245.502 272.394 243.267 271.799 241.06C270.847 237.419 269.063 233.866 266.571 230.589C264.079 227.313 260.879 224.313 257.237 221.82C253.54 219.313 249.35 217.3 244.851 215.941C240.352 214.583 235.545 213.878 230.679 213.989C230.166 214.001 229.653 214.023 229.138 214.053C224.547 214.325 220.06 215.305 215.88 216.853C211.699 218.401 207.827 220.517 204.414 223.06C198.74 226.516 192.749 228.939 186.848 230.451C180.946 231.963 175.135 232.565 169.702 232.457C166.045 232.377 162.568 231.972 159.318 231.345C156.069 230.718 153.048 229.87 150.282 228.893C144.751 226.941 140.254 224.492 136.788 222.189C133.323 219.885 130.875 217.731 129.312 216.172C127.75 214.613 127.06 213.654 127.2 213.504C127.341 213.353 128.305 214.019 130.08 215.257C131.855 216.496 134.456 218.304 137.973 220.24C141.489 222.175 145.935 224.236 151.282 225.827C153.955 226.623 156.85 227.299 159.937 227.769C163.025 228.24 166.306 228.504 169.728 228.47C174.797 228.43 180.185 227.743 185.631 226.24C191.076 224.736 196.577 222.416 201.757 219.178C205.481 216.336 209.711 213.977 214.292 212.26C218.872 210.543 223.801 209.467 228.87 209.186C229.437 209.155 230.005 209.133 230.571 209.122C235.982 209.006 241.298 209.803 246.259 211.339C251.221 212.874 255.826 215.147 259.884 217.973C263.921 220.763 267.429 224.179 270.147 227.945C272.865 231.711 274.794 235.825 275.824 240.045C276.438 242.629 276.688 245.206 276.645 247.696C276.601 250.186 276.263 252.588 275.698 254.846C275.134 257.103 274.342 259.216 273.387 261.148C272.432 263.08 271.313 264.831 270.09 266.388C268.752 268.085 267.301 269.536 265.826 270.769C264.351 272.002 262.85 273.016 261.39 273.848C258.469 275.51 255.723 276.439 253.457 276.955C251.19 277.471 249.395 277.583 248.188 277.565C246.981 277.547 246.355 277.406 246.35 277.255L246.35 277.255Z" fill="#351904"/>
<path fill-rule="evenodd" clip-rule="evenodd" d="M311.439 175.062C311.606 175.127 311.54 175.734 311.372 176.829C311.203 177.925 310.936 179.517 310.832 181.56C310.727 183.603 310.789 186.106 311.329 188.901C311.87 191.696 312.893 194.791 314.707 197.774C315.901 199.761 317.44 201.698 319.304 203.52C321.168 205.342 323.358 207.049 325.787 208.582C327.885 209.903 330.174 211.088 332.619 212.165C335.064 213.243 337.665 214.212 340.369 215.126C345.275 216.775 350.555 218.214 355.979 220.012C356.058 220.039 356.137 220.065 356.216 220.091C361.695 221.908 367.026 224.093 371.772 227.017C376.498 229.943 380.495 233.545 383.701 237.387C386.907 241.23 389.324 245.312 391.037 249.28C392.829 253.438 393.851 257.448 394.382 261.018C394.914 264.588 394.96 267.721 394.802 270.263C394.643 272.806 394.285 274.764 393.948 276.07C393.61 277.377 393.297 278.036 393.105 278.005C392.912 277.974 392.849 277.255 392.821 275.937C392.793 274.62 392.796 272.699 392.627 270.268C392.457 267.838 392.112 264.892 391.346 261.591C390.581 258.29 389.391 254.629 387.543 250.888C385.782 247.317 383.41 243.67 380.369 240.252C377.328 236.833 373.617 233.644 369.304 231.067C364.975 228.466 359.976 226.486 354.675 224.709C354.599 224.684 354.522 224.658 354.446 224.633C349.183 222.887 343.883 221.398 338.822 219.615C336.027 218.636 333.302 217.557 330.713 216.337C328.125 215.116 325.673 213.755 323.408 212.236C320.772 210.474 318.412 208.47 316.418 206.323C314.424 204.175 312.797 201.884 311.556 199.548C310.622 197.773 309.933 195.992 309.438 194.269C308.942 192.546 308.64 190.88 308.481 189.314C308.161 186.181 308.407 183.461 308.836 181.306C309.266 179.151 309.873 177.552 310.376 176.515C310.878 175.479 311.272 174.997 311.439 175.061L311.439 175.062Z" fill="#351904"/>
<path fill-rule="evenodd" clip-rule="evenodd" d="M293.793 214.644C293.972 214.542 294.465 215.02 295.275 215.963C296.085 216.906 297.217 218.313 298.739 220.021C300.26 221.73 302.176 223.74 304.551 225.849C306.927 227.957 309.765 230.164 313.078 232.231C316.276 234.222 319.922 236.086 323.955 237.588C327.989 239.089 332.409 240.229 337.076 240.765C339.98 241.106 343.019 241.222 346.174 241.301C349.604 241.388 353.042 241.441 356.435 241.712C360.014 241.97 363.58 242.545 366.896 243.555C370.211 244.566 373.275 246.012 375.932 247.908C378.688 249.914 380.85 252.359 382.438 254.898C384.026 257.437 385.041 260.068 385.596 262.554C386.194 265.249 386.256 267.744 386.052 269.883C385.848 272.023 385.38 273.811 384.872 275.21C384.364 276.61 383.818 277.625 383.385 278.273C382.952 278.921 382.634 279.205 382.491 279.137C382.347 279.069 382.384 278.651 382.527 277.916C382.671 277.18 382.92 276.123 383.131 274.758C383.342 273.393 383.513 271.717 383.459 269.788C383.405 267.858 383.125 265.673 382.41 263.396C381.752 261.294 380.715 259.106 379.233 257.028C377.751 254.951 375.824 252.985 373.474 251.428C371.224 249.898 368.573 248.771 365.625 247.986C362.677 247.201 359.431 246.758 356.081 246.504C352.884 246.288 349.531 246.262 346.049 246.171C342.848 246.087 339.649 245.941 336.495 245.545C331.399 244.893 326.618 243.552 322.311 241.795C318.004 240.038 314.171 237.866 310.876 235.552C307.457 233.154 304.608 230.599 302.305 228.16C300.001 225.72 298.238 223.396 296.93 221.406C295.621 219.416 294.763 217.76 294.262 216.592C293.762 215.425 293.616 214.747 293.794 214.645L293.793 214.644Z" fill="#351904"/>
<path fill-rule="evenodd" clip-rule="evenodd" d="M98.7817 227.205C98.8576 227.097 99.0993 227.103 99.4917 227.244C99.8841 227.385 100.428 227.662 101.07 228.124C101.713 228.585 102.456 229.232 103.203 230.114C103.951 230.996 104.703 232.114 105.311 233.494C105.86 234.74 106.284 236.189 106.469 237.797C106.654 239.406 106.599 241.174 106.182 242.999C105.65 245.222 104.615 247.444 103.092 249.473C101.569 251.502 99.5571 253.338 97.1992 254.755C95.1886 255.97 92.9828 256.926 90.6593 257.64C88.3358 258.353 85.895 258.823 83.4379 259.102C82.7798 259.179 82.12 259.246 81.4593 259.303C77.2993 259.666 73.353 259.671 69.6924 259.838C67.324 259.957 65.0582 260.128 62.942 260.437C60.8257 260.746 58.8589 261.192 57.0624 261.806C54.2702 262.743 51.8579 264.078 49.8625 265.479C47.8672 266.88 46.2856 268.347 45.0517 269.632C43.8177 270.918 42.9252 272.022 42.2787 272.768C41.6321 273.513 41.2245 273.9 41.0323 273.805C40.8401 273.711 40.8751 273.139 41.1989 272.16C41.5228 271.182 42.1421 269.796 43.1957 268.174C44.2494 266.551 45.7439 264.69 47.7929 262.877C49.8418 261.064 52.4499 259.299 55.6162 257.983C57.6501 257.15 59.8577 256.51 62.1801 256.049C64.5024 255.588 66.9391 255.306 69.4097 255.135C73.219 254.853 77.1396 254.797 81.0349 254.456C81.6537 254.402 82.266 254.341 82.8716 254.27C85.1182 253.998 87.2918 253.615 89.3127 253.054C91.3335 252.493 93.2012 251.754 94.866 250.801C96.7783 249.701 98.4652 248.325 99.7714 246.818C101.078 245.311 102.003 243.674 102.514 242.015C102.95 240.665 103.13 239.297 103.128 238.014C103.125 236.731 102.94 235.531 102.646 234.463C102.323 233.279 101.865 232.245 101.393 231.372C100.92 230.498 100.431 229.784 100.011 229.207C99.5917 228.63 99.2409 228.189 99.0194 227.861C98.7979 227.532 98.7059 227.313 98.7817 227.205Z" fill="#351904"/>
<path fill-rule="evenodd" clip-rule="evenodd" d="M125.92 242.347C126.161 242.462 126.072 243.288 125.568 244.688C125.064 246.087 124.132 248.062 122.589 250.333C121.045 252.603 118.879 255.169 115.978 257.607C113.077 260.044 109.436 262.348 105.133 263.989C102.921 264.823 100.583 265.48 98.1659 265.987C95.7486 266.494 93.2521 266.852 90.7307 267.119C90.0652 267.189 89.4046 267.253 88.75 267.312C85.8346 267.583 83.0215 267.768 80.3456 267.994C77.6699 268.22 75.1314 268.487 72.7507 268.869C69.1328 269.443 65.8308 270.277 62.9295 271.183C60.0282 272.088 57.5263 273.064 55.4681 273.923C53.4096 274.782 51.7919 275.523 50.6473 275.986C49.5027 276.449 48.8281 276.631 48.6897 276.428C48.5512 276.224 48.9596 275.648 49.8875 274.793C50.8154 273.937 52.266 272.804 54.2328 271.56C56.1997 270.316 58.6857 268.965 61.6578 267.716C64.6296 266.468 68.0887 265.325 71.9412 264.512C74.4734 263.981 77.1379 263.594 79.8814 263.285C82.6248 262.976 85.4463 262.744 88.2916 262.47C88.9297 262.406 89.5698 262.34 90.2112 262.27C92.6411 262.007 94.9933 261.699 97.2299 261.28C99.4665 260.862 101.587 260.332 103.57 259.654C107.416 258.357 110.78 256.498 113.578 254.514C116.375 252.53 118.609 250.424 120.347 248.556C122.085 246.688 123.337 245.058 124.232 243.944C125.128 242.83 125.68 242.231 125.921 242.347L125.92 242.347Z" fill="#351904"/>
<path fill-rule="evenodd" clip-rule="evenodd" d="M312.342 170.743C312.383 170.641 312.742 170.674 313.4 170.8C314.058 170.927 315.017 171.145 316.27 171.363C317.523 171.582 319.072 171.8 320.896 171.894C322.72 171.987 324.821 171.955 327.131 171.655C329.182 171.388 331.401 170.907 333.693 170.112C335.985 169.316 338.351 168.206 340.628 166.682C343.028 165.087 345.337 163.047 347.437 160.584C349.537 158.12 351.429 155.232 352.988 152.03C354.319 149.292 355.403 146.317 356.241 143.151C357.078 139.985 357.669 136.629 358.038 133.158C358.37 130.016 358.513 126.773 358.52 123.443C358.528 120.113 358.4 116.695 358.21 113.209C357.849 106.657 357.245 99.8406 357.052 92.7672C357.022 91.6846 357.002 90.5971 356.994 89.5053C356.95 83.5137 357.252 77.6054 357.94 71.8785C358.628 66.1512 359.703 60.6053 361.165 55.321C363.022 48.6031 365.537 42.3256 368.528 36.7061C371.52 31.0862 374.986 26.1241 378.695 21.8978C383.251 16.7177 388.128 12.7066 392.718 9.65736C397.309 6.60787 401.615 4.51294 405.235 3.07031C408.855 1.62791 411.793 0.829138 413.81 0.401029C415.827 -0.0270886 416.926 -0.0935305 416.975 0.0946142C417.023 0.282764 416.021 0.715476 414.141 1.48046C412.261 2.24545 409.502 3.35212 406.12 5.04547C402.738 6.73877 398.729 9.02735 394.486 12.1752C390.242 15.3227 385.761 19.3356 381.615 24.3807C378.227 28.4941 375.076 33.2854 372.359 38.6886C369.642 44.0919 367.359 50.1073 365.659 56.5362C364.321 61.5988 363.345 66.9209 362.722 72.4356C362.099 77.9504 361.829 83.6578 361.868 89.4711C361.875 90.5304 361.892 91.5864 361.919 92.6386C362.095 99.5162 362.663 106.306 362.972 112.968C363.139 116.513 363.23 120.028 363.174 123.486C363.118 126.944 362.914 130.346 362.511 133.667C362.067 137.34 361.36 140.913 360.374 144.301C359.389 147.688 358.125 150.888 356.596 153.843C354.803 157.31 352.616 160.41 350.197 163.035C347.777 165.659 345.126 167.808 342.391 169.466C339.77 171.044 337.104 172.132 334.554 172.856C332.005 173.58 329.572 173.941 327.351 174.064C324.85 174.204 322.613 174.044 320.702 173.748C318.791 173.453 317.205 173.023 315.952 172.595C314.699 172.167 313.778 171.741 313.178 171.411C312.579 171.081 312.301 170.846 312.342 170.744L312.342 170.743Z" fill="#351904"/>
<path fill-rule="evenodd" clip-rule="evenodd" d="M312.686 175.836C312.779 175.684 313.7 176.069 315.411 176.8C317.121 177.532 319.632 178.604 322.957 179.633C326.282 180.662 330.434 181.645 335.301 182.069C337.735 182.281 340.344 182.351 343.091 182.207C345.838 182.064 348.723 181.707 351.684 181.059C357.1 179.884 362.766 177.739 368.284 174.485C373.803 171.231 379.174 166.869 383.844 161.502C387.775 156.988 391.215 151.765 394.021 145.994C396.827 140.222 398.998 133.903 400.421 127.296C400.705 125.985 400.959 124.664 401.186 123.333C402.502 115.603 402.838 107.873 402.782 100.314C402.726 92.7554 402.282 85.3692 401.891 78.3091C401.608 73.4374 401.352 68.6767 401.214 64.0779C401.077 59.4794 401.059 55.0435 401.207 50.8141C401.356 46.5847 401.671 42.562 402.157 38.7815C402.643 35.001 403.299 31.4626 404.092 28.1942C405.175 23.755 406.501 19.857 407.848 16.5311C409.196 13.2053 410.564 10.4497 411.775 8.26189C412.984 6.07427 414.035 4.45284 414.8 3.39163C415.564 2.33067 416.041 1.8285 416.168 1.90439C416.295 1.9803 416.068 2.63087 415.554 3.81979C415.041 5.00873 414.243 6.73778 413.29 8.99808C412.336 11.2585 411.228 14.0525 410.138 17.3699C409.048 20.6877 407.977 24.5311 407.135 28.8609C406.509 32.0487 406.013 35.4898 405.678 39.168C405.342 42.8463 405.168 46.7622 405.147 50.8931C405.126 55.0241 405.259 59.3703 405.494 63.9025C405.729 68.4345 406.067 73.1519 406.412 78.0169C406.932 85.0694 407.468 92.527 407.571 100.263C407.674 108 407.34 116.015 405.974 124.141C405.739 125.541 405.475 126.933 405.179 128.317C403.68 135.305 401.344 141.991 398.307 148.099C395.269 154.208 391.53 159.738 387.264 164.516C382.181 170.207 376.339 174.759 370.348 178.089C364.357 181.42 358.221 183.533 352.389 184.598C349.194 185.176 346.107 185.435 343.189 185.461C340.27 185.487 337.519 185.28 334.973 184.92C329.882 184.202 325.622 182.882 322.279 181.521C318.937 180.16 316.499 178.761 314.916 177.717C313.333 176.673 312.593 175.988 312.686 175.836L312.686 175.836Z" fill="#351904"/>
<path fill-rule="evenodd" clip-rule="evenodd" d="M109.219 149.94C109.328 149.746 110.558 150.215 112.807 151.135C115.056 152.056 118.333 153.422 122.591 154.852C126.849 156.281 132.096 157.769 138.216 158.842C144.336 159.914 151.332 160.567 158.921 160.296C164.399 160.107 170.177 159.426 176.204 158.361C182.232 157.295 188.51 155.847 194.989 154.282C200.307 152.99 205.787 151.613 211.427 150.358C218.287 148.832 225.078 147.572 231.765 146.869C240.152 145.991 248.289 146.045 255.862 146.792C263.436 147.539 270.445 148.977 276.697 150.799C282.949 152.621 288.445 154.825 293.105 157.076C297.765 159.327 301.593 161.622 304.587 163.642C307.412 165.549 309.495 167.201 310.853 168.391C312.211 169.58 312.848 170.307 312.733 170.458C312.619 170.609 311.76 170.178 310.211 169.288C308.662 168.397 306.418 167.049 303.485 165.45C300.379 163.757 296.498 161.793 291.851 159.866C287.205 157.938 281.792 156.048 275.687 154.507C269.582 152.966 262.785 151.775 255.473 151.21C248.161 150.646 240.335 150.71 232.282 151.62C225.848 152.344 219.248 153.604 212.487 155.113C206.927 156.353 201.464 157.704 196.106 158.959C189.582 160.497 183.172 161.89 176.961 162.874C170.749 163.857 164.736 164.43 159.012 164.484C151.075 164.549 143.823 163.606 137.545 162.203C131.267 160.8 125.957 158.942 121.721 157.136C117.485 155.33 114.313 153.582 112.221 152.281C110.13 150.981 109.11 150.135 109.219 149.941L109.219 149.94Z" fill="#351904"/>
</g>
<defs>
<clipPath id="clip0_1079_622">
<rect width="417" height="283" fill="white"/>
</clipPath>
</defs>
</svg>
