<svg width="233" height="65" viewBox="0 0 233 65" fill="none" xmlns="http://www.w3.org/2000/svg">
<path d="M42.954 55.2736C33.3819 60.3484 24.9302 65.4783 16.4174 62.1711C6.91277 58.4789 0.0834103 46.6856 0.000652004 36.5837C-0.0692428 28.0616 5.48699 17.921 13.4939 14.7788C22.2334 11.3494 35.7068 14.2429 40.7051 22.1213C44.6368 28.3183 42.9209 41.2237 36.6572 43.7037C28.2784 47.021 26.9398 46.052 17.7667 43.7037C13.7411 42.6731 10.6828 36.7292 11.9196 32.8012C13.2261 28.6524 19.4974 25.2785 23.6138 26.7938C28.2523 28.5011 34.7164 30.8269 28.3364 35.9162C26.2323 37.5947 21.8354 33.3123 20.2405 35.4712C19.2464 36.8168 20.4498 39.5923 22.0396 40.1437C26.6376 41.7384 33.4836 37.486 34.6332 32.8012C35.7618 28.2022 31.4288 22.5431 26.9871 20.7863C21.8884 18.7698 14.6061 20.6774 11.0201 24.7913C6.64079 29.8153 5.9588 38.6788 8.99612 44.5937C11.7507 49.9577 18.6874 53.1167 24.7382 53.7161C30.2578 54.2628 34.8343 51.4376 40.4803 48.3762C46.164 45.2945 46.7245 53.2747 42.954 55.2736Z" fill="#351904" fill-opacity="0.87"/>
<path d="M90.0878 41.9177C80.5157 46.9925 72.064 52.1224 63.5512 48.8152C54.0466 45.123 47.2172 33.3297 47.1344 23.2278C47.0645 14.7057 52.6208 4.56506 60.6276 1.42293C69.3672 -2.00645 82.8406 0.886971 87.8389 8.76539C91.7706 14.9624 90.0547 27.8678 83.791 30.3478C75.4121 33.6651 74.0736 32.6961 64.9005 30.3478C60.8749 29.3172 57.8166 23.3733 59.0534 19.4453C60.3599 15.2965 66.6312 11.9227 70.7475 13.4379C75.3861 15.1452 81.8502 17.471 75.4702 22.5603C73.3661 24.2388 68.9691 19.9564 67.3742 22.1153C66.3802 23.4609 67.5836 26.2365 69.1733 26.7878C73.7714 28.3825 80.6174 24.1301 81.767 19.4453C82.8956 14.8463 78.5626 9.18725 74.1208 7.4304C69.0222 5.41393 61.7399 7.32146 58.1539 11.4354C53.7746 16.4594 53.0926 25.3229 56.1299 31.2378C58.8845 36.6018 65.8212 39.7608 71.872 40.3602C77.3916 40.9069 81.968 38.0817 87.614 35.0203C93.2978 31.9386 93.8583 39.9188 90.0878 41.9177Z" fill="#351904" fill-opacity="0.87"/>
<path d="M138.111 57.0544C128.539 62.1292 120.087 67.2591 111.574 63.9519C102.07 60.2597 95.2403 48.4664 95.1575 38.3645C95.0876 29.8424 100.644 19.7017 108.651 16.5596C117.39 13.1302 130.864 16.0237 135.862 23.9021C139.794 30.0991 138.078 43.0045 131.814 45.4845C123.435 48.8018 122.097 47.8328 112.924 45.4845C108.898 44.4539 105.84 38.51 107.077 34.582C108.383 30.4332 114.654 27.0593 118.771 28.5745C123.409 30.2819 129.873 32.6077 123.493 37.697C121.389 39.3754 116.992 35.0931 115.397 37.252C114.403 38.5976 115.607 41.3731 117.196 41.9245C121.794 43.5192 128.64 39.2667 129.79 34.582C130.919 29.983 126.586 24.3239 122.144 22.5671C117.045 20.5506 109.763 22.4581 106.177 26.5721C101.798 31.5961 101.116 40.4596 104.153 46.3745C106.908 51.7385 113.844 54.8975 119.895 55.4969C125.415 56.0436 129.991 53.2184 135.637 50.1569C141.321 47.0752 141.881 55.0555 138.111 57.0544Z" fill="#351904" fill-opacity="0.87"/>
<path d="M182.577 41.9177C173.005 46.9925 164.553 52.1224 156.04 48.8152C146.535 45.123 139.706 33.3297 139.623 23.2278C139.553 14.7057 145.11 4.56506 153.117 1.42293C161.856 -2.00645 175.33 0.886971 180.328 8.76539C184.26 14.9624 182.544 27.8678 176.28 30.3478C167.901 33.6651 166.563 32.6961 157.389 30.3478C153.364 29.3172 150.305 23.3733 151.542 19.4453C152.849 15.2965 159.12 11.9227 163.236 13.4379C167.875 15.1452 174.339 17.471 167.959 22.5603C165.855 24.2388 161.458 19.9564 159.863 22.1153C158.869 23.4609 160.073 26.2365 161.662 26.7878C166.26 28.3825 173.106 24.1301 174.256 19.4453C175.385 14.8463 171.052 9.18725 166.61 7.4304C161.511 5.41393 154.229 7.32146 150.643 11.4354C146.264 16.4594 145.582 25.3229 148.619 31.2378C151.373 36.6018 158.31 39.7608 164.361 40.3602C169.881 40.9069 174.457 38.0817 180.103 35.0203C185.787 31.9386 186.347 39.9188 182.577 41.9177Z" fill="#351904" fill-opacity="0.87"/>
<path d="M230.6 55.2736C221.028 60.3484 212.576 65.4783 204.063 62.1711C194.559 58.4789 187.729 46.6856 187.646 36.5837C187.577 28.0616 193.133 17.921 201.14 14.7788C209.879 11.3494 223.353 14.2429 228.351 22.1213C232.283 28.3183 230.567 41.2237 224.303 43.7037C215.924 47.021 214.586 46.052 205.413 43.7037C201.387 42.6731 198.329 36.7292 199.565 32.8012C200.872 28.6524 207.143 25.2785 211.26 26.7938C215.898 28.5011 222.362 30.8269 215.982 35.9162C213.878 37.5947 209.481 33.3123 207.886 35.4712C206.892 36.8168 208.096 39.5923 209.685 40.1437C214.283 41.7384 221.129 37.486 222.279 32.8012C223.408 28.2022 219.075 22.5431 214.633 20.7863C209.534 18.7698 202.252 20.6774 198.666 24.7913C194.287 29.8153 193.605 38.6788 196.642 44.5937C199.396 49.9577 206.333 53.1167 212.384 53.7161C217.904 54.2628 222.48 51.4376 228.126 48.3762C233.81 45.2945 234.37 53.2747 230.6 55.2736Z" fill="#351904" fill-opacity="0.87"/>
</svg>
