<svg width="230" height="274" viewBox="0 0 230 274" fill="none" xmlns="http://www.w3.org/2000/svg">
<g clip-path="url(#clip0_1079_560)">
<path d="M181.652 0.00261462C191.548 -0.0898568 201.464 2.26859 209.27 7.38255C221.928 15.6751 231.362 32.8406 229.838 47.9277C228.194 64.2112 214.693 80.7878 199.34 86.3389C189.569 89.8715 177.752 85.2913 168.842 79.937C159.053 74.054 146.099 59.2604 149.363 42.0494C149.449 41.5938 158.692 14.3094 181.391 16.338C192.906 17.3672 213.025 20.7195 209.214 48.8795C207.438 62.0114 201.611 71.2348 183.95 67.0522C174.428 64.7978 166.324 57.7805 168.611 45.3826C169.135 42.5413 171.327 35.1173 181.812 35.4385C194.139 35.8162 196.359 44.0702 199.586 51.281C203.843 40.9737 203.55 30.9558 183.114 25.7703C173.761 23.3969 160.199 30.9726 159.033 43.9075C157.323 62.8769 173.177 74.002 183.433 74.4202C210.116 75.5081 214.624 61.6559 216.267 49.3775C219.699 23.7231 202.674 13.6779 180.727 12.4345C160.338 11.2797 147.322 26.9667 145.878 40.3338C144.067 57.0982 133.426 97.8553 128.414 105.545C122.375 114.811 112.594 121.182 102.294 122.774C91.8096 124.395 82.3109 108.824 71.6733 114.081C68.1758 115.809 69.6307 121.633 68.8363 125.462C68.0282 129.357 85.6827 125.799 95.079 163.873C96.1644 168.27 103.501 168.85 105.009 173.12C106.682 177.861 106.565 184.645 102.881 188.058C100.097 190.637 95.1691 189.841 91.5327 188.769C88.5352 187.886 85.5061 185.644 83.9968 183.212C83.3789 182.216 74.1321 184.641 81.603 176.677C82.7692 175.433 85.4028 155.047 78.766 148.224C76.1038 145.487 71.2288 146.227 67.4178 146.801C66.5543 159.01 65.6351 171.41 68.8363 183.079C75.4038 207.016 81.5462 194.185 104.299 248.52C110.47 263.254 100.407 286.658 85.8586 258.478C79.1847 245.551 77.4276 232.09 66.7085 225.046C59.5455 220.34 47.8421 216.811 41.175 222.201C30.443 230.879 37.2065 247.992 36.9194 263.458C36.6615 277.349 8.62123 281.319 9.96741 251.365C12.8303 187.644 28.2409 205.316 35.5009 181.656C38.9411 170.443 43.5432 160.306 44.0121 147.513C33.8397 146.119 31.2598 149.27 23.6207 158.138C4.07626 180.826 -8.93164 165.989 7.44101 142.711C14.5336 132.626 33.1788 123.15 41.663 109.768C50.494 95.839 37.1709 79.8773 57.4881 62.8654C68.8075 53.3879 87.114 47.996 100.753 53.6183C109.624 57.2746 120.939 73.5864 114.283 91.8303C110.185 103.063 96.6679 106.984 79.6314 99.5504C77.0636 98.4299 62.9268 89.7985 64.7582 79.0516C65.7677 73.1286 76.1497 63.0683 86.3666 66.7437C95.0738 69.8762 103.952 79.7672 100.242 85.5708C96.5695 91.3139 82.0588 86.7624 91.8614 80.7232C94.1353 79.3223 82.3144 70.1758 77.418 77.6984C72.9692 84.5335 77.7524 91.1961 82.9169 93.1041C96.9965 98.3056 107.457 96.247 108.47 86.7165C110.485 67.7556 96.6855 64.1207 88.6747 62.1603C80.0239 60.0428 63.8703 65.7255 57.2458 78.6231C51.0657 90.6538 69.1393 98.8132 78.1577 103.912C102.137 117.468 115.512 104.756 120.528 98.3757C128.826 87.8185 128.776 46.6956 135.68 32.7324C141.947 20.058 146.695 10.1992 159.624 4.53855C166.27 1.62855 173.959 0.0760227 181.655 0.00389499L181.652 0.00261462Z" fill="#351904" fill-opacity="0.86"/>
</g>
<defs>
<clipPath id="clip0_1079_560">
<rect width="230" height="274" fill="white" transform="matrix(-1 0 0 1 230 0)"/>
</clipPath>
</defs>
</svg>
