<svg width="165" height="163" viewBox="0 0 165 163" fill="none" xmlns="http://www.w3.org/2000/svg">
<g clip-path="url(#clip0_1079_608)">
<path d="M113.816 63.8955C108.276 61.6956 103.138 59.5589 97.4954 58.6566C94.22 58.1328 90.8564 58.7193 87.5411 58.5903C83.0942 58.4173 78.6657 57.3327 74.2249 57.6412C70.1207 57.9262 65.9665 58.6696 62.149 60.2123C57.4889 62.0956 52.839 64.5747 49.3534 68.2019C46.2025 71.4811 44.4155 75.8873 42.592 80.0537C41.048 83.5814 38.0436 87.3705 39.1049 91.0664C41.2227 98.4429 49.8523 102.386 56.6445 105.938C62.3584 108.925 68.8975 110.574 75.3399 110.917C79.9711 111.164 84.5583 109.757 89.0968 108.788C92.4576 108.07 95.8324 107.297 99.042 106.065C104.966 103.791 111.231 101.647 116.055 97.5179C118.913 95.0715 121.865 92.0189 122.62 88.3335C123.346 84.7958 123.159 79.9451 120.292 77.7641C112.761 72.0353 104.886 68.9454 96.335 67.1542C89.3485 65.6908 81.8209 65.4121 74.9114 67.2357C69.2166 68.7387 63.1559 71.2716 59.4963 75.8966C56.3744 79.8418 54.4035 85.4596 55.3241 90.3999C56.0642 94.3712 59.3737 97.6816 62.647 100.038C66.0786 102.509 70.4576 103.646 74.6626 104.112C79.6943 104.671 84.9376 104.026 89.7728 102.508C93.6583 101.289 97.7677 99.661 100.486 96.6226C103.066 93.7386 105.211 87.67 104.916 85.8916C104.419 82.885 95.8095 79.6868 90.5953 78.2211C85.9355 76.9113 80.6894 75.8668 76.0914 77.4016C72.6492 78.5507 68.4561 80.8578 67.7575 84.4223C67.1104 87.7244 69.8057 91.2775 72.4564 93.3373C76.0729 96.1479 80.8481 96.7267 85.821 96.5423C88.1175 96.4571 92.9663 91.8112 87.8067 89.9271C84.8298 88.8399 78.7068 87.3348 78.0439 85.799C77.4724 84.4747 78.602 82.6051 79.8335 81.851C82.4495 80.2493 85.7499 81.7207 89.0109 82.2908C94.2828 83.2125 97.3913 85.9656 98.3329 89.4977C99.1908 92.7156 97.3774 93.9863 95.8538 95.5415C93.855 97.5817 90.7646 98.2474 87.9999 98.9498C84.2927 99.8918 80.3549 100.516 76.5744 99.9586C72.9886 99.4296 68.973 98.5488 66.4842 95.9144C63.4613 92.7145 61.4114 87.7156 62.2654 83.3871C63.0497 79.4117 66.7395 76.2609 70.2234 74.1948C74.0571 71.9211 78.8308 71.3446 83.2814 71.3719C89.5509 71.4105 95.8503 73.0988 101.606 75.5739C105.924 77.4308 111.281 79.156 113.347 83.3822C114.441 85.6217 113.986 88.6536 112.797 90.8506C110.056 95.9198 104.16 98.6573 99.0678 101.348C95.4209 103.274 91.3516 104.354 87.3238 105.229C83.0424 106.16 78.6022 107.223 74.261 106.658C67.6176 105.792 60.6533 103.72 55.5171 99.4224C52.1322 96.5901 49.2184 92.4825 48.6395 88.0997C48.1002 84.0179 49.7596 79.6303 52.0828 76.226C54.7466 72.3225 59.1858 69.8726 63.3196 67.5889C66.1969 65.9996 69.336 64.7664 72.5662 64.1728C79.526 62.8932 86.7602 63.1596 93.7846 63.9695C100.563 64.751 105.459 67.2663 113.668 68.8189C115.33 69.1334 119.436 66.1279 113.816 63.8959L113.816 63.8955Z" fill="#351904"/>
<path d="M105.308 52.692C107.069 47.3027 108.218 45.1291 109.911 41.3969C111.281 38.3748 113.142 33.0303 116.358 33.8129C118.71 34.385 118.814 38.6219 117.979 40.8996C116.151 45.8812 114.967 46.9261 112.228 51.791C111.101 53.7926 109.107 56.6504 106.876 56.1284C105.651 55.8418 104.916 53.8909 105.308 52.692Z" fill="#351904"/>
<path d="M122.569 67.2883C121.543 65.0209 125.133 62.8191 127.179 61.3965C130.913 58.8014 132.992 56.9636 136.5 54.9617C138.07 54.0652 141.063 53.9313 141.885 55.5395C142.74 57.2121 140.583 59.2926 139.102 60.4524C135.237 63.4779 132.921 64.5932 128.223 67.5843C126.629 68.5995 123.348 69.0078 122.569 67.2883Z" fill="#351904"/>
<path d="M125.572 93.5514C125.758 91.325 129.519 90.1694 131.667 90.7686C134.873 91.6626 137.781 92.87 140.617 94.2571C141.998 94.9324 143.337 96.8518 142.83 98.3072C142.268 99.9185 139.761 100.763 138.121 100.305C135.226 99.4953 132.027 97.6084 129.143 95.9512C127.9 95.2366 125.452 94.9842 125.572 93.5515L125.572 93.5514Z" fill="#351904"/>
<path d="M108.456 110.684C110.009 110.295 112.153 111.248 112.804 112.71C114.453 116.409 115.194 119.205 115.993 123.233C116.303 124.798 114.905 126.902 113.343 127.227C111.47 127.617 109.057 125.939 108.54 124.096C107.679 121.022 106.757 117.861 105.845 114.144C105.502 112.743 107.056 111.034 108.456 110.684Z" fill="#351904"/>
<path d="M87.4704 119.676C88.9382 119.705 90.0023 121.388 90.6754 122.693C92.0778 125.412 92.3535 128.757 91.9341 131.792C91.6699 133.702 91.5007 136.694 89.6163 137.096C87.7064 137.504 85.7831 135.035 85.3021 133.142C84.5342 130.119 84.0329 126.435 84.6109 122.153C84.7796 120.904 86.2118 119.652 87.4704 119.676Z" fill="#351904"/>
<path d="M65.0531 116.92C66.8286 117.92 67.0053 121.273 65.8922 122.986C63.8631 126.109 61.8682 130.419 59.9426 132.536C58.8257 133.764 56.1392 134.123 54.9872 132.934C53.6494 131.553 54.5351 128.779 55.6239 127.188C57.5828 124.325 59.1989 120.519 62.067 118.209C62.9118 117.529 64.1102 116.389 65.0531 116.92Z" fill="#351904"/>
<path d="M48.7395 107.59C49.9017 109.027 48.1026 111.311 47.2002 112.929C45.9309 115.205 44.2464 117.494 41.948 118.718C40.438 119.521 38.1181 120.621 36.8737 119.452C35.5435 118.202 36.2636 115.482 37.3127 113.982C38.2875 112.589 40.3036 110.252 42.2511 108.061C43.3112 106.869 47.3766 105.905 48.7395 107.59Z" fill="#351904"/>
<path d="M79.5903 51.2896C81.6102 51.0469 82.2233 47.8287 82.2663 45.7926C82.3828 40.2757 82.6042 35.5551 81.6068 30.0471C81.2649 28.1588 78.2877 26.7087 76.5003 27.408C74.7916 28.0764 74.4816 30.7506 74.6054 32.5815C74.9601 37.8266 75.6339 42.516 76.7405 47.8254C77.0459 49.291 78.1047 51.4681 79.5903 51.2896Z" fill="#351904"/>
<path d="M59.21 54.5391C60.5682 54.1619 61.25 52.2252 61.2255 50.815C61.1446 46.1589 60.7966 41.2776 59.6154 36.6703C59.1535 34.8686 56.6531 33.0219 54.9133 33.6807C53.226 34.3196 53.2315 37.0841 53.395 38.8811C53.8376 43.7478 54.4087 47.6857 56.0176 52.643C56.4001 53.8217 58.0157 54.8707 59.21 54.5391Z" fill="#351904"/>
<path d="M45.2018 66.8878C46.3393 65.397 45.4828 62.4679 43.9385 61.4133C40.0602 58.7652 36.164 56.5734 32.2712 54.287C30.7768 53.4093 27.9207 53.2263 27.0878 54.7517C26.2624 56.2632 28.0639 58.3457 29.4779 59.3206C33.8644 62.3451 36.64 64.9131 41.7843 67.0234C42.8382 67.4557 44.5089 67.7959 45.2018 66.8878Z" fill="#351904"/>
<path d="M35.7133 79.5588C35.5612 77.7608 32.8015 77.2504 30.9834 76.9465C26.8728 76.2593 24.6429 76.3142 20.2924 76.1084C18.7732 76.0366 17.5186 78.4577 17.8138 79.9511C18.1314 81.5579 20.2283 82.5183 21.8491 82.7415C24.7625 83.1426 27.2564 83.0901 31.2064 83.181C33.4271 83.2321 35.8756 81.478 35.7133 79.5588Z" fill="#351904"/>
<path d="M36.1721 95.9722C37.1685 97.2734 36.1966 99.7116 34.9131 100.736C32.6445 102.547 30.4046 105.125 27.5447 106.202C25.9936 106.786 23.5586 107.952 22.5929 106.607C21.5992 105.224 23.3239 103.025 24.6052 101.897C26.983 99.8039 29.6221 96.9968 32.8411 95.9623C33.8991 95.6222 35.4973 95.091 36.1721 95.9722Z" fill="#351904"/>
</g>
<defs>
<clipPath id="clip0_1079_608">
<rect width="121.799" height="116.724" fill="white" transform="translate(59.6049) rotate(30.707)"/>
</clipPath>
</defs>
</svg>
