<svg width="200" height="448" viewBox="0 0 200 448" fill="none" xmlns="http://www.w3.org/2000/svg">
<path d="M175.148 276.148H170.414V280.889H175.148V276.148Z" fill="#351904"/>
<path d="M175.148 304.593H170.414V309.333H175.148V304.593Z" fill="#351904"/>
<path d="M175.148 200.296H170.414V205.037H175.148V200.296Z" fill="#351904"/>
<path d="M175.148 295.111H170.414V299.852H175.148V295.111Z" fill="#351904"/>
<path d="M181.065 14.2222H175.148V18.963H181.065V14.2222Z" fill="#351904"/>
<path d="M175.148 257.185H170.414V261.926H175.148V257.185Z" fill="#351904"/>
<path d="M175.148 219.259H170.414V224H175.148V219.259Z" fill="#351904"/>
<path d="M175.148 209.778H170.414V214.519H175.148V209.778Z" fill="#351904"/>
<path d="M175.148 238.222H170.414V242.963H175.148V238.222Z" fill="#351904"/>
<path d="M175.148 228.741H170.414V233.481H175.148V228.741Z" fill="#351904"/>
<path d="M175.148 247.704H170.414V252.444H175.148V247.704Z" fill="#351904"/>
<path d="M175.148 266.667H170.414V271.407H175.148V266.667Z" fill="#351904"/>
<path d="M175.148 391.111H170.414V395.852H175.148V391.111Z" fill="#351904"/>
<path d="M175.148 381.63H170.414V386.37H175.148V381.63Z" fill="#351904"/>
<path d="M175.148 372.148H170.414V376.889H175.148V372.148Z" fill="#351904"/>
<path d="M175.148 400.593H170.414V405.333H175.148V400.593Z" fill="#351904"/>
<path d="M175.148 314.074H170.414V318.815H175.148V314.074Z" fill="#351904"/>
<path d="M175.148 410.074H170.414V414.815H175.148V410.074Z" fill="#351904"/>
<path d="M175.148 334.222H170.414V338.963H175.148V334.222Z" fill="#351904"/>
<path d="M175.148 323.556H170.414V328.296H175.148V323.556Z" fill="#351904"/>
<path d="M175.148 362.667H170.414V367.407H175.148V362.667Z" fill="#351904"/>
<path d="M175.148 343.704H170.414V348.444H175.148V343.704Z" fill="#351904"/>
<path d="M175.148 353.185H170.414V357.926H175.148V353.185Z" fill="#351904"/>
<path d="M175.148 285.63H170.414V290.37H175.148V285.63Z" fill="#351904"/>
<path d="M175.148 28.4444H170.414V33.1852H175.148V28.4444Z" fill="#351904"/>
<path d="M175.148 37.9259H170.414V42.6667H175.148V37.9259Z" fill="#351904"/>
<path d="M175.148 47.4074H170.414V52.1481H175.148V47.4074Z" fill="#351904"/>
<path d="M175.148 75.8519H170.414V80.5926H175.148V75.8519Z" fill="#351904"/>
<path d="M175.148 56.8889H170.414V61.6296H175.148V56.8889Z" fill="#351904"/>
<path d="M175.148 66.3704H170.414V71.1111H175.148V66.3704Z" fill="#351904"/>
<path d="M175.148 0H170.414V4.74074H175.148V0Z" fill="#351904"/>
<path d="M175.148 419.556H170.414V424.296H175.148V419.556Z" fill="#351904"/>
<path d="M181.065 4.74074H175.148V9.48148H181.065V4.74074Z" fill="#351904"/>
<path d="M175.148 190.815H170.414V195.556H175.148V190.815Z" fill="#351904"/>
<path d="M175.148 9.48148H170.414V14.2222H175.148V9.48148Z" fill="#351904"/>
<path d="M175.148 18.963H170.414V23.7037H175.148V18.963Z" fill="#351904"/>
<path d="M175.148 162.37H170.414V167.111H175.148V162.37Z" fill="#351904"/>
<path d="M175.148 152.889H170.414V157.63H175.148V152.889Z" fill="#351904"/>
<path d="M175.148 143.407H170.414V148.148H175.148V143.407Z" fill="#351904"/>
<path d="M175.148 181.333H170.414V186.074H175.148V181.333Z" fill="#351904"/>
<path d="M175.148 85.3333H170.414V90.0741H175.148V85.3333Z" fill="#351904"/>
<path d="M175.148 171.852H170.414V176.593H175.148V171.852Z" fill="#351904"/>
<path d="M175.148 104.296H170.414V110.222H175.148V104.296Z" fill="#351904"/>
<path d="M175.148 94.8148H170.414V99.5556H175.148V94.8148Z" fill="#351904"/>
<path d="M175.148 113.778H170.414V119.704H175.148V113.778Z" fill="#351904"/>
<path d="M175.148 124.444H170.414V129.185H175.148V124.444Z" fill="#351904"/>
<path d="M175.148 133.926H170.414V138.667H175.148V133.926Z" fill="#351904"/>
<path d="M181.065 138.667H175.148V143.407H181.065V138.667Z" fill="#351904"/>
<path d="M181.065 318.815H175.148V323.556H181.065V318.815Z" fill="#351904"/>
<path d="M181.065 299.852H175.148V304.593H181.065V299.852Z" fill="#351904"/>
<path d="M181.065 328.296H175.148V333.037H181.065V328.296Z" fill="#351904"/>
<path d="M181.065 309.333H175.148V314.074H181.065V309.333Z" fill="#351904"/>
<path d="M181.065 357.926H175.148V362.667H181.065V357.926Z" fill="#351904"/>
<path d="M181.065 337.778H175.148V343.704H181.065V337.778Z" fill="#351904"/>
<path d="M181.065 348.444H175.148V353.185H181.065V348.444Z" fill="#351904"/>
<path d="M181.065 252.444H175.148V257.185H181.065V252.444Z" fill="#351904"/>
<path d="M181.065 261.926H175.148V266.667H181.065V261.926Z" fill="#351904"/>
<path d="M181.065 280.889H175.148V285.63H181.065V280.889Z" fill="#351904"/>
<path d="M181.065 290.37H175.148V295.111H181.065V290.37Z" fill="#351904"/>
<path d="M181.065 271.407H175.148V276.148H181.065V271.407Z" fill="#351904"/>
<path d="M181.065 443.259H175.148V448H181.065V443.259Z" fill="#351904"/>
<path d="M181.065 242.963H175.148V247.704H181.065V242.963Z" fill="#351904"/>
<path d="M181.065 433.778H175.148V438.519H181.065V433.778Z" fill="#351904"/>
<path d="M181.065 424.296H175.148V429.037H181.065V424.296Z" fill="#351904"/>
<path d="M175.148 438.519H170.414V443.259H175.148V438.519Z" fill="#351904"/>
<path d="M175.148 429.037H170.414V433.778H175.148V429.037Z" fill="#351904"/>
<path d="M181.065 395.852H175.148V400.593H181.065V395.852Z" fill="#351904"/>
<path d="M181.065 386.37H175.148V391.111H181.065V386.37Z" fill="#351904"/>
<path d="M181.065 376.889H175.148V381.63H181.065V376.889Z" fill="#351904"/>
<path d="M181.065 405.333H175.148V410.074H181.065V405.333Z" fill="#351904"/>
<path d="M181.065 414.815H175.148V419.556H181.065V414.815Z" fill="#351904"/>
<path d="M181.065 367.407H175.148V372.148H181.065V367.407Z" fill="#351904"/>
<path d="M181.065 80.5926H175.148V85.3333H181.065V80.5926Z" fill="#351904"/>
<path d="M181.065 129.185H175.148V133.926H181.065V129.185Z" fill="#351904"/>
<path d="M181.065 90.0741H175.148V94.8148H181.065V90.0741Z" fill="#351904"/>
<path d="M181.065 33.1852H175.148V37.9259H181.065V33.1852Z" fill="#351904"/>
<path d="M181.065 109.037H175.148V114.963H181.065V109.037Z" fill="#351904"/>
<path d="M181.065 119.704H175.148V124.444H181.065V119.704Z" fill="#351904"/>
<path d="M181.065 99.5556H175.148V104.296H181.065V99.5556Z" fill="#351904"/>
<path d="M181.065 42.6667H175.148V47.4074H181.065V42.6667Z" fill="#351904"/>
<path d="M181.065 233.481H175.148V238.222H181.065V233.481Z" fill="#351904"/>
<path d="M181.065 61.6296H175.148V66.3704H181.065V61.6296Z" fill="#351904"/>
<path d="M181.065 52.1481H175.148V56.8889H181.065V52.1481Z" fill="#351904"/>
<path d="M181.065 71.1111H175.148V75.8519H181.065V71.1111Z" fill="#351904"/>
<path d="M181.065 176.593H175.148V181.333H181.065V176.593Z" fill="#351904"/>
<path d="M181.065 205.037H175.148V209.778H181.065V205.037Z" fill="#351904"/>
<path d="M181.065 23.7037H175.148V28.4444H181.065V23.7037Z" fill="#351904"/>
<path d="M181.065 224H175.148V228.741H181.065V224Z" fill="#351904"/>
<path d="M181.065 186.074H175.148V190.815H181.065V186.074Z" fill="#351904"/>
<path d="M181.065 214.519H175.148V219.259H181.065V214.519Z" fill="#351904"/>
<path d="M181.065 195.556H175.148V200.296H181.065V195.556Z" fill="#351904"/>
<path d="M181.065 157.63H175.148V162.37H181.065V157.63Z" fill="#351904"/>
<path d="M181.065 148.148H175.148V152.889H181.065V148.148Z" fill="#351904"/>
<path d="M181.065 167.111H175.148V171.852H181.065V167.111Z" fill="#351904"/>
<path d="M200 0H196.45V448H200V0Z" fill="#351904"/>
<path d="M190.533 0H186.982V448H190.533V0Z" fill="#351904"/>
<path d="M28.4024 285.63H23.6686V290.37H28.4024V285.63Z" fill="#351904"/>
<path d="M28.4024 238.222H23.6686V242.963H28.4024V238.222Z" fill="#351904"/>
<path d="M28.4024 295.111H23.6686V299.852H28.4024V295.111Z" fill="#351904"/>
<path d="M28.4024 323.556H23.6686V328.296H28.4024V323.556Z" fill="#351904"/>
<path d="M28.4024 314.074H23.6686V318.815H28.4024V314.074Z" fill="#351904"/>
<path d="M28.4024 304.593H23.6686V309.333H28.4024V304.593Z" fill="#351904"/>
<path d="M28.4024 247.704H23.6686V252.444H28.4024V247.704Z" fill="#351904"/>
<path d="M28.4024 257.185H23.6686V261.926H28.4024V257.185Z" fill="#351904"/>
<path d="M23.6686 443.259H18.9349V448H23.6686V443.259Z" fill="#351904"/>
<path d="M28.4024 266.667H23.6686V271.407H28.4024V266.667Z" fill="#351904"/>
<path d="M28.4024 333.037H23.6686V337.778H28.4024V333.037Z" fill="#351904"/>
<path d="M28.4024 276.148H23.6686V280.889H28.4024V276.148Z" fill="#351904"/>
<path d="M28.4024 410.074H23.6686V414.815H28.4024V410.074Z" fill="#351904"/>
<path d="M28.4024 419.556H23.6686V424.296H28.4024V419.556Z" fill="#351904"/>
<path d="M28.4024 429.037H23.6686V433.778H28.4024V429.037Z" fill="#351904"/>
<path d="M28.4024 400.593H23.6686V405.333H28.4024V400.593Z" fill="#351904"/>
<path d="M28.4024 343.704H23.6686V348.444H28.4024V343.704Z" fill="#351904"/>
<path d="M28.4024 438.519H23.6686V443.259H28.4024V438.519Z" fill="#351904"/>
<path d="M28.4024 391.111H23.6686V395.852H28.4024V391.111Z" fill="#351904"/>
<path d="M28.4024 353.185H23.6686V357.926H28.4024V353.185Z" fill="#351904"/>
<path d="M28.4024 362.667H23.6686V367.407H28.4024V362.667Z" fill="#351904"/>
<path d="M28.4024 372.148H23.6686V376.889H28.4024V372.148Z" fill="#351904"/>
<path d="M28.4024 381.63H23.6686V386.37H28.4024V381.63Z" fill="#351904"/>
<path d="M28.4024 228.741H23.6686V233.481H28.4024V228.741Z" fill="#351904"/>
<path d="M28.4024 219.259H23.6686V224H28.4024V219.259Z" fill="#351904"/>
<path d="M28.4024 66.3704H23.6686V71.1111H28.4024V66.3704Z" fill="#351904"/>
<path d="M28.4024 104.296H23.6686V110.222H28.4024V104.296Z" fill="#351904"/>
<path d="M28.4024 85.3333H23.6686V90.0741H28.4024V85.3333Z" fill="#351904"/>
<path d="M28.4024 94.8148H23.6686V99.5556H28.4024V94.8148Z" fill="#351904"/>
<path d="M28.4024 56.8889H23.6686V61.6296H28.4024V56.8889Z" fill="#351904"/>
<path d="M28.4024 18.963H23.6686V23.7037H28.4024V18.963Z" fill="#351904"/>
<path d="M28.4024 47.4074H23.6686V52.1481H28.4024V47.4074Z" fill="#351904"/>
<path d="M28.4024 9.48148H23.6686V14.2222H28.4024V9.48148Z" fill="#351904"/>
<path d="M28.4024 37.9259H23.6686V42.6667H28.4024V37.9259Z" fill="#351904"/>
<path d="M28.4024 28.4444H23.6686V33.1852H28.4024V28.4444Z" fill="#351904"/>
<path d="M28.4024 75.8519H23.6686V80.5926H28.4024V75.8519Z" fill="#351904"/>
<path d="M28.4024 181.333H23.6686V186.074H28.4024V181.333Z" fill="#351904"/>
<path d="M28.4024 190.815H23.6686V195.556H28.4024V190.815Z" fill="#351904"/>
<path d="M28.4024 171.852H23.6686V176.593H28.4024V171.852Z" fill="#351904"/>
<path d="M28.4024 209.778H23.6686V214.519H28.4024V209.778Z" fill="#351904"/>
<path d="M28.4024 200.296H23.6686V205.037H28.4024V200.296Z" fill="#351904"/>
<path d="M28.4024 152.889H23.6686V157.63H28.4024V152.889Z" fill="#351904"/>
<path d="M28.4024 162.37H23.6686V167.111H28.4024V162.37Z" fill="#351904"/>
<path d="M28.4024 133.926H23.6686V138.667H28.4024V133.926Z" fill="#351904"/>
<path d="M28.4024 124.444H23.6686V129.185H28.4024V124.444Z" fill="#351904"/>
<path d="M28.4024 113.778H23.6686V119.704H28.4024V113.778Z" fill="#351904"/>
<path d="M28.4024 143.407H23.6686V148.148H28.4024V143.407Z" fill="#351904"/>
<path d="M23.6686 167.111H18.9349V171.852H23.6686V167.111Z" fill="#351904"/>
<path d="M23.6686 99.5556H18.9349V104.296H23.6686V99.5556Z" fill="#351904"/>
<path d="M23.6686 129.185H18.9349V133.926H23.6686V129.185Z" fill="#351904"/>
<path d="M23.6686 109.037H18.9349V114.963H23.6686V109.037Z" fill="#351904"/>
<path d="M23.6686 119.704H18.9349V124.444H23.6686V119.704Z" fill="#351904"/>
<path d="M23.6686 148.148H18.9349V152.889H23.6686V148.148Z" fill="#351904"/>
<path d="M23.6686 138.667H18.9349V143.407H23.6686V138.667Z" fill="#351904"/>
<path d="M23.6686 195.556H18.9349V200.296H23.6686V195.556Z" fill="#351904"/>
<path d="M23.6686 157.63H18.9349V162.37H23.6686V157.63Z" fill="#351904"/>
<path d="M23.6686 205.037H18.9349V209.778H23.6686V205.037Z" fill="#351904"/>
<path d="M23.6686 186.074H18.9349V190.815H23.6686V186.074Z" fill="#351904"/>
<path d="M23.6686 433.778H18.9349V438.519H23.6686V433.778Z" fill="#351904"/>
<path d="M23.6686 214.519H18.9349V219.259H23.6686V214.519Z" fill="#351904"/>
<path d="M23.6686 14.2222H18.9349V18.963H23.6686V14.2222Z" fill="#351904"/>
<path d="M23.6686 90.0741H18.9349V94.8148H23.6686V90.0741Z" fill="#351904"/>
<path d="M28.4024 0H23.6686V4.74074H28.4024V0Z" fill="#351904"/>
<path d="M23.6686 4.74074H18.9349V9.48148H23.6686V4.74074Z" fill="#351904"/>
<path d="M23.6686 33.1852H18.9349V37.9259H23.6686V33.1852Z" fill="#351904"/>
<path d="M23.6686 23.7037H18.9349V28.4444H23.6686V23.7037Z" fill="#351904"/>
<path d="M23.6686 42.6667H18.9349V47.4074H23.6686V42.6667Z" fill="#351904"/>
<path d="M23.6686 80.5926H18.9349V85.3333H23.6686V80.5926Z" fill="#351904"/>
<path d="M23.6686 71.1111H18.9349V75.8519H23.6686V71.1111Z" fill="#351904"/>
<path d="M23.6686 52.1481H18.9349V56.8889H23.6686V52.1481Z" fill="#351904"/>
<path d="M23.6686 61.6296H18.9349V66.3704H23.6686V61.6296Z" fill="#351904"/>
<path d="M23.6686 176.593H18.9349V181.333H23.6686V176.593Z" fill="#351904"/>
<path d="M23.6686 224H18.9349V228.741H23.6686V224Z" fill="#351904"/>
<path d="M23.6686 367.407H18.9349V372.148H23.6686V367.407Z" fill="#351904"/>
<path d="M23.6686 337.778H18.9349V343.704H23.6686V337.778Z" fill="#351904"/>
<path d="M23.6686 376.889H18.9349V381.63H23.6686V376.889Z" fill="#351904"/>
<path d="M23.6686 348.444H18.9349V353.185H23.6686V348.444Z" fill="#351904"/>
<path d="M23.6686 386.37H18.9349V391.111H23.6686V386.37Z" fill="#351904"/>
<path d="M23.6686 414.815H18.9349V419.556H23.6686V414.815Z" fill="#351904"/>
<path d="M23.6686 424.296H18.9349V429.037H23.6686V424.296Z" fill="#351904"/>
<path d="M23.6686 328.296H18.9349V333.037H23.6686V328.296Z" fill="#351904"/>
<path d="M23.6686 405.333H18.9349V410.074H23.6686V405.333Z" fill="#351904"/>
<path d="M23.6686 395.852H18.9349V400.593H23.6686V395.852Z" fill="#351904"/>
<path d="M23.6686 357.926H18.9349V362.667H23.6686V357.926Z" fill="#351904"/>
<path d="M23.6686 252.444H18.9349V257.185H23.6686V252.444Z" fill="#351904"/>
<path d="M23.6686 271.407H18.9349V276.148H23.6686V271.407Z" fill="#351904"/>
<path d="M23.6686 261.926H18.9349V266.667H23.6686V261.926Z" fill="#351904"/>
<path d="M23.6686 233.481H18.9349V238.222H23.6686V233.481Z" fill="#351904"/>
<path d="M23.6686 318.815H18.9349V323.556H23.6686V318.815Z" fill="#351904"/>
<path d="M23.6686 242.963H18.9349V247.704H23.6686V242.963Z" fill="#351904"/>
<path d="M23.6686 309.333H18.9349V314.074H23.6686V309.333Z" fill="#351904"/>
<path d="M23.6686 299.852H18.9349V304.593H23.6686V299.852Z" fill="#351904"/>
<path d="M23.6686 280.889H18.9349V285.63H23.6686V280.889Z" fill="#351904"/>
<path d="M23.6686 290.37H18.9349V295.111H23.6686V290.37Z" fill="#351904"/>
<path d="M2.36686 0H0V448H2.36686V0Z" fill="#351904"/>
<path d="M11.8343 0H9.46746V448H11.8343V0Z" fill="#351904"/>
<path d="M161.139 69.029L143.282 86.9797V44.8252L122.168 65.8978V23.7222L99.3448 46.4997L76.5524 23.7183V65.8939L55.438 44.7896V87.0298L37.6714 69.2771V0H34.3195V70.6639L54.7094 91.0425L34.3195 111.389V203.646L54.7425 224.056L34.3195 244.435V336.625L54.7425 357.037L34.3195 377.415V448H37.6714V378.802L55.4657 361.047V403.221L76.5815 382.148V424.325L99.3766 401.577L122.199 424.321V382.176L143.314 403.216V361.07L161.137 378.803V448H164.494V377.413L144.009 357.037L164.496 336.626L164.463 245.13L164.46 244.435L143.984 224.06L164.497 203.745V111.484L143.975 91.0385L164.497 70.4079V0H161.14L161.139 69.029ZM139.926 52.9099V87.0338L122.829 69.9712L139.926 52.9099ZM122.168 74.0445L139.202 91.0425L122.168 108.042V74.0445ZM139.926 95.0525V129.149L122.831 112.112L139.926 95.0525ZM118.811 31.8042V65.9018L101.717 48.8669L118.811 31.8042ZM80.5759 112.126L99.3409 93.4097L118.119 112.147L99.3448 130.883L80.5759 112.126ZM96.9727 133.25L79.9069 150.279V116.192L96.9727 133.25ZM118.811 116.188V150.285L101.717 133.251L118.811 116.188ZM101.714 91.0425L118.811 73.9825V108.105L101.714 91.0425ZM99.3462 51.2341L118.118 69.9395L99.3422 88.6753L80.5706 69.9699L99.3422 51.2354L99.3462 51.2341ZM79.9056 31.8095L96.9715 48.8669L79.9056 65.8992V31.8095ZM79.8765 74.0089L96.9662 91.0425L79.8765 108.077V74.0089ZM58.7911 52.8808L75.8583 69.9382L58.7911 86.9705V52.8808ZM76.5194 74.0128V108.039L59.4853 91.0135L76.5194 74.0128ZM58.7911 95.0578L75.8451 112.103L74.1725 113.788H74.1804L58.7898 129.145V95.0578H58.7911ZM37.6726 202.259V112.778L55.4393 95.0525V137.229L76.5538 116.157V198.906L55.4393 177.803V220.01L37.6726 202.259ZM74.2095 246.804L58.7911 262.19V228.165L58.8242 228.198V228.07L75.8808 245.118L74.2055 246.804H74.2095ZM58.7911 219.983V185.894L75.8583 202.952L58.7911 219.983ZM59.5025 224.009L76.5538 206.993V241.049L59.5025 224.009ZM58.8242 395.136V361.048L75.8874 378.105L58.8242 395.136ZM76.5829 374.061L59.5157 357.006L76.5829 339.973V374.061ZM58.8242 352.963V318.874L75.8874 335.931L58.8242 352.963ZM55.467 310.782V353.02L37.6726 335.237V245.819L55.4393 228.092L55.467 270.236L76.5524 249.197L76.5815 331.883L55.467 310.782ZM99.3462 135.617L121.319 157.516L99.3462 179.48L77.4013 157.516L99.3462 135.617ZM118.12 202.952L99.3462 221.688L80.5997 202.952L99.3422 184.22L99.3462 184.219L118.12 202.952ZM101.714 181.849L118.811 164.758V198.91L101.714 181.849ZM79.9056 198.906V164.762L96.9715 181.849L79.9056 198.906ZM96.986 224.069L79.9056 241.092V206.997L96.986 224.069ZM80.5931 245.155L99.3422 226.454L118.102 245.146L99.3422 263.864L80.5931 245.155ZM97.0018 266.263L79.9056 283.323V249.202L97.0018 266.263ZM118.845 249.141V283.296L101.718 266.229L118.845 249.141ZM101.701 224.072L118.811 206.995V206.999L118.844 206.968V241.154L101.701 224.072ZM79.9347 416.246V382.156L97.0058 399.212L79.9347 416.246ZM79.9347 331.889V297.775L97.0058 314.833L79.9347 331.889ZM99.3779 317.201L118.149 335.935L99.3779 354.672L80.6288 335.935L99.3779 317.201ZM97.0058 357.038L79.9347 374.069V339.981L97.0058 357.038ZM80.6328 378.112L99.3752 359.408L99.3779 359.406L118.134 378.128L99.3779 396.846L80.6328 378.112ZM118.845 416.25L101.751 399.212L118.845 382.155V416.25ZM118.845 374.099L101.747 357.041L118.845 339.977V374.099ZM118.845 331.893L101.747 314.832L118.845 297.768V331.893ZM99.3779 312.465L77.4304 290.529L99.3779 268.631L121.354 290.529L99.3779 312.465ZM139.958 395.144L122.86 378.109L139.958 361.049V395.144ZM122.201 374.037V340.039L139.232 357.039L122.201 374.037ZM139.958 353.029L122.86 335.965L122.893 335.934L122.89 335.932L139.957 318.876V353.029H139.958ZM161.106 245.827L161.137 335.241L143.314 353.003V310.788L122.199 331.891V249.231L143.314 270.244V228.123L161.106 245.827ZM122.862 202.953L139.926 185.896V220.047L122.829 202.985L122.862 202.953ZM139.958 228.048V262.19L139.926 262.16V262.164L122.829 245.127L139.926 228.066V228.077L139.958 228.048ZM139.202 224.057L122.201 241.022V207.09L139.202 224.057ZM161.139 112.874V202.351L143.282 220.038V177.806L122.168 198.909V116.187L143.282 137.228V95.0842L161.139 112.874Z" fill="#351904"/>
</svg>
